<svg width="30" height="29" viewBox="0 0 30 29" fill="none" xmlns="http://www.w3.org/2000/svg">
<path d="M29.25 14.5C29.25 6.49123 22.7588 0 14.75 0C6.74123 0 0.25 6.49123 0.25 14.5C0.25 21.7381 5.54945 27.7367 12.4856 28.8252V18.6951H8.80699V14.5H12.4856V11.306C12.4856 7.67507 14.6467 5.66493 17.9599 5.66493C19.5489 5.66493 21.2094 5.95096 21.2094 5.95096V9.51836H19.3821C17.5785 9.51836 17.0223 10.6386 17.0223 11.7827V14.5H21.0426L20.399 18.6951H17.0223V28.8252C23.9505 27.7367 29.25 21.7381 29.25 14.5Z" fill="#1877F2"/>
<path d="M20.3909 18.6951L21.0344 14.5H17.0142V11.7827C17.0142 10.6386 17.5783 9.51834 19.3739 9.51834H21.2013V5.95094C21.2013 5.95094 19.5407 5.66492 17.9517 5.66492C14.6386 5.66492 12.4775 7.67505 12.4775 11.306V14.5H8.79883V18.6951H12.4775V28.8252C13.2164 28.9444 13.9712 29 14.7418 29C15.5125 29 16.2673 28.9364 17.0062 28.8252V18.6951H20.3909Z" fill="black"/>
</svg>
