<svg width="28" height="28" viewBox="0 0 28 28" fill="none" xmlns="http://www.w3.org/2000/svg">
<path d="M27.2502 14.0814C27.2502 12.9488 27.1583 12.1223 26.9594 11.2652H14.0259V16.3773H21.6175C21.4645 17.6477 20.638 19.561 18.8013 20.8466L18.7755 21.0177L22.8649 24.1857L23.1482 24.214C25.7501 21.8109 27.2502 18.2752 27.2502 14.0814Z" fill="#4285F4"/>
<path d="M14.0257 27.5506C17.745 27.5506 20.8673 26.3261 23.148 24.214L18.8011 20.8466C17.6379 21.6578 16.0766 22.2241 14.0257 22.2241C10.3829 22.2241 7.29115 19.8212 6.18902 16.4998L6.02748 16.5135L1.77533 19.8043L1.71973 19.9589C3.98498 24.4588 8.63798 27.5506 14.0257 27.5506Z" fill="#34A853"/>
<path d="M6.18863 16.4998C5.89782 15.6426 5.72952 14.7242 5.72952 13.7753C5.72952 12.8263 5.89782 11.908 6.17333 11.0508L6.16563 10.8683L1.8602 7.52466L1.71933 7.59166C0.785712 9.459 0.25 11.556 0.25 13.7753C0.25 15.9947 0.785712 18.0915 1.71933 19.9588L6.18863 16.4998Z" fill="#FBBC05"/>
<path d="M14.0257 5.32642C16.6124 5.32642 18.3572 6.44374 19.3521 7.37746L23.2398 3.58158C20.8522 1.36223 17.745 0 14.0257 0C8.63798 0 3.98498 3.09177 1.71973 7.59167L6.17373 11.0508C7.29116 7.72947 10.3829 5.32642 14.0257 5.32642Z" fill="#EB4335"/>
</svg>
