<svg width="197" height="25" viewBox="0 0 197 25" fill="none" xmlns="http://www.w3.org/2000/svg">
<path d="M5.165 24.84C3.74167 24.84 2.26 24.4433 0.72 23.65L1.35 21.76C2.37667 22.0867 3.18167 22.25 3.765 22.25C5.445 22.25 6.285 21.2 6.285 19.1C6.285 18.7733 5.78333 12.8233 4.78 1.25L13.11 0.724999L11.15 19.065C10.73 22.915 8.735 24.84 5.165 24.84ZM28.0864 19.905C28.9498 18.785 29.5448 17.5717 29.8714 16.265C30.1981 14.9583 30.3614 13.8267 30.3614 12.87C30.3614 11.89 30.2214 10 29.9414 7.2L37.4314 6.045L35.1914 24.21L31.7264 24.525L31.0264 17.875H30.7814C29.0548 22.495 26.3014 24.805 22.5214 24.805C21.9614 24.805 21.4948 24.7117 21.1214 24.525C19.9314 23.0783 19.1148 20.6283 18.6714 17.175C18.2281 13.6983 18.0064 10.2333 18.0064 6.78L25.0064 6.255C24.5864 10.3383 24.3764 13.395 24.3764 15.425C24.3764 17.455 24.5514 19.6367 24.9014 21.97C26.1848 21.69 27.2464 21.0017 28.0864 19.905ZM45.1815 24.525L43.6765 10.385L40.4565 10.84L40.2465 7.235L43.3265 7.095L42.8015 2.195L51.5165 1.04L50.8165 6.71L54.2815 6.535L54.1765 8.88L50.4665 9.405L48.6465 24.21L45.1815 24.525ZM59.6947 24.805C59.2981 24.805 59.0064 24.7933 58.8197 24.77C58.0264 24.2333 57.3847 23.44 56.8947 22.39C56.4281 21.3167 56.1947 20.2083 56.1947 19.065C56.1947 17.5717 56.7547 16.4867 57.8747 15.81C59.0181 15.1333 61.1064 14.795 64.1397 14.795C65.2597 14.795 66.4264 14.8767 67.6397 15.04L67.5697 14.27C67.4764 13.3367 67.0331 12.6017 66.2397 12.065C65.4464 11.505 64.4314 11.225 63.1947 11.225C61.9581 11.225 60.7214 11.61 59.4847 12.38L57.9447 7.305C59.9514 6.48833 62.2381 6.08 64.8047 6.08C67.3714 6.08 69.4014 6.66333 70.8947 7.83C72.3881 8.97333 73.1347 10.77 73.1347 13.22C73.1347 13.78 73.1114 14.2233 73.0647 14.55L72.0847 24.21L68.6197 24.525L68.0947 19.45H67.8147C67.0214 21.13 65.9247 22.4483 64.5247 23.405C63.1247 24.3383 61.5147 24.805 59.6947 24.805ZM67.7797 16.51L65.9247 16.475C64.3847 16.475 63.1247 16.5567 62.1447 16.72C61.8181 17.3733 61.6547 17.9567 61.6547 18.47C61.6547 18.9833 61.7247 19.4733 61.8647 19.94C62.0047 20.4067 62.1564 20.7217 62.3197 20.885C65.1197 20.4417 66.9397 18.9833 67.7797 16.51ZM78.7025 1.95C82.1325 0.899999 85.3525 0.375 88.3625 0.375C91.3958 0.375 93.8108 0.934999 95.6075 2.055C96.0041 3.245 96.2025 4.38833 96.2025 5.485C96.2025 7.935 95.1525 9.94167 93.0525 11.505C94.3825 12.5317 95.4208 13.6983 96.1675 15.005C96.9375 16.3117 97.3225 17.525 97.3225 18.645C97.3225 20.4883 96.4708 21.9933 94.7675 23.16C93.0641 24.3267 90.4041 24.91 86.7875 24.91C84.7341 24.91 82.7041 24.77 80.6975 24.49L78.7025 1.95ZM84.4425 21.9C85.7258 22.25 86.9508 22.425 88.1175 22.425C89.2841 22.425 90.0541 22.355 90.4275 22.215C91.2441 20.5817 91.6525 18.9367 91.6525 17.28C91.6525 15.6 91.2675 14.165 90.4975 12.975C89.0975 13.605 87.3358 14.165 85.2125 14.655L84.4425 21.9ZM90.5325 6.71C90.5325 5.96333 90.3691 5.205 90.0425 4.435C89.7158 3.64167 89.2608 3.04667 88.6775 2.65C88.1408 2.65 87.3941 2.79 86.4375 3.07L85.4225 12.66C86.9858 12.03 88.2225 11.1667 89.1325 10.07C90.0658 8.95 90.5325 7.83 90.5325 6.71ZM104.573 24.805C104.176 24.805 103.884 24.7933 103.698 24.77C102.904 24.2333 102.263 23.44 101.773 22.39C101.306 21.3167 101.073 20.2083 101.073 19.065C101.073 17.5717 101.633 16.4867 102.753 15.81C103.896 15.1333 105.984 14.795 109.018 14.795C110.138 14.795 111.304 14.8767 112.518 15.04L112.448 14.27C112.354 13.3367 111.911 12.6017 111.118 12.065C110.324 11.505 109.309 11.225 108.073 11.225C106.836 11.225 105.599 11.61 104.363 12.38L102.823 7.305C104.829 6.48833 107.116 6.08 109.683 6.08C112.249 6.08 114.279 6.66333 115.773 7.83C117.266 8.97333 118.013 10.77 118.013 13.22C118.013 13.78 117.989 14.2233 117.943 14.55L116.963 24.21L113.498 24.525L112.973 19.45H112.693C111.899 21.13 110.803 22.4483 109.403 23.405C108.003 24.3383 106.393 24.805 104.573 24.805ZM112.658 16.51L110.803 16.475C109.263 16.475 108.003 16.5567 107.023 16.72C106.696 17.3733 106.533 17.9567 106.533 18.47C106.533 18.9833 106.603 19.4733 106.743 19.94C106.883 20.4067 107.034 20.7217 107.198 20.885C109.998 20.4417 111.818 18.9833 112.658 16.51ZM122.81 6.185L137.02 6.5L137.475 10.14L125.75 21.725L136.6 20.43L136.81 24L121.725 24.315L121.83 22.18L129.705 9.37L122.915 8.67L122.81 6.185ZM142.395 6.185L156.605 6.5L157.06 10.14L145.335 21.725L156.185 20.43L156.395 24L141.31 24.315L141.415 22.18L149.29 9.37L142.5 8.67L142.395 6.185ZM164.045 24.805C163.649 24.805 163.357 24.7933 163.17 24.77C162.377 24.2333 161.735 23.44 161.245 22.39C160.779 21.3167 160.545 20.2083 160.545 19.065C160.545 17.5717 161.105 16.4867 162.225 15.81C163.369 15.1333 165.457 14.795 168.49 14.795C169.61 14.795 170.777 14.8767 171.99 15.04L171.92 14.27C171.827 13.3367 171.384 12.6017 170.59 12.065C169.797 11.505 168.782 11.225 167.545 11.225C166.309 11.225 165.072 11.61 163.835 12.38L162.295 7.305C164.302 6.48833 166.589 6.08 169.155 6.08C171.722 6.08 173.752 6.66333 175.245 7.83C176.739 8.97333 177.485 10.77 177.485 13.22C177.485 13.78 177.462 14.2233 177.415 14.55L176.435 24.21L172.97 24.525L172.445 19.45H172.165C171.372 21.13 170.275 22.4483 168.875 23.405C167.475 24.3383 165.865 24.805 164.045 24.805ZM172.13 16.51L170.275 16.475C168.735 16.475 167.475 16.5567 166.495 16.72C166.169 17.3733 166.005 17.9567 166.005 18.47C166.005 18.9833 166.075 19.4733 166.215 19.94C166.355 20.4067 166.507 20.7217 166.67 20.885C169.47 20.4417 171.29 18.9833 172.13 16.51ZM193.028 12.485C191.441 12.485 190.24 13.045 189.423 14.165C188.606 15.2617 188.011 17.2917 187.638 20.255L187.148 24.21L183.683 24.525L181.898 7.165L189.388 6.01L188.688 11.61H188.933C190.8 7.59667 193.18 5.46167 196.073 5.205L195.093 12.66C194.23 12.5433 193.541 12.485 193.028 12.485Z" fill="white"/>
</svg>
