<svg width="196" height="25" viewBox="0 0 196 25" fill="none" xmlns="http://www.w3.org/2000/svg">
<path d="M4.63326 24.84C3.20993 24.84 1.72826 24.4433 0.188262 23.65L0.818262 21.76C1.84493 22.0867 2.64993 22.25 3.23326 22.25C4.91326 22.25 5.75326 21.2 5.75326 19.1C5.75326 18.7733 5.2516 12.8233 4.24826 1.25L12.5783 0.724999L10.6183 19.065C10.1983 22.915 8.20326 24.84 4.63326 24.84ZM27.5547 19.905C28.418 18.785 29.013 17.5717 29.3397 16.265C29.6664 14.9583 29.8297 13.8267 29.8297 12.87C29.8297 11.89 29.6897 10 29.4097 7.2L36.8997 6.045L34.6597 24.21L31.1947 24.525L30.4947 17.875H30.2497C28.523 22.495 25.7697 24.805 21.9897 24.805C21.4297 24.805 20.963 24.7117 20.5897 24.525C19.3997 23.0783 18.583 20.6283 18.1397 17.175C17.6964 13.6983 17.4747 10.2333 17.4747 6.78L24.4747 6.255C24.0547 10.3383 23.8447 13.395 23.8447 15.425C23.8447 17.455 24.0197 19.6367 24.3697 21.97C25.653 21.69 26.7147 21.0017 27.5547 19.905ZM44.6497 24.525L43.1447 10.385L39.9247 10.84L39.7147 7.235L42.7947 7.095L42.2697 2.195L50.9847 1.04L50.2847 6.71L53.7497 6.535L53.6447 8.88L49.9347 9.405L48.1147 24.21L44.6497 24.525ZM59.163 24.805C58.7663 24.805 58.4747 24.7933 58.288 24.77C57.4947 24.2333 56.853 23.44 56.363 22.39C55.8963 21.3167 55.663 20.2083 55.663 19.065C55.663 17.5717 56.223 16.4867 57.343 15.81C58.4863 15.1333 60.5747 14.795 63.608 14.795C64.728 14.795 65.8947 14.8767 67.108 15.04L67.038 14.27C66.9447 13.3367 66.5013 12.6017 65.708 12.065C64.9147 11.505 63.8997 11.225 62.663 11.225C61.4263 11.225 60.1897 11.61 58.953 12.38L57.413 7.305C59.4197 6.48833 61.7063 6.08 64.273 6.08C66.8397 6.08 68.8697 6.66333 70.363 7.83C71.8563 8.97333 72.603 10.77 72.603 13.22C72.603 13.78 72.5797 14.2233 72.533 14.55L71.553 24.21L68.088 24.525L67.563 19.45H67.283C66.4897 21.13 65.393 22.4483 63.993 23.405C62.593 24.3383 60.983 24.805 59.163 24.805ZM67.248 16.51L65.393 16.475C63.853 16.475 62.593 16.5567 61.613 16.72C61.2863 17.3733 61.123 17.9567 61.123 18.47C61.123 18.9833 61.193 19.4733 61.333 19.94C61.473 20.4067 61.6247 20.7217 61.788 20.885C64.588 20.4417 66.408 18.9833 67.248 16.51ZM78.1707 1.95C81.6007 0.899999 84.8207 0.375 87.8307 0.375C90.8641 0.375 93.2791 0.934999 95.0757 2.055C95.4724 3.245 95.6707 4.38833 95.6707 5.485C95.6707 7.935 94.6207 9.94167 92.5207 11.505C93.8507 12.5317 94.8891 13.6983 95.6357 15.005C96.4057 16.3117 96.7907 17.525 96.7907 18.645C96.7907 20.4883 95.9391 21.9933 94.2357 23.16C92.5324 24.3267 89.8724 24.91 86.2557 24.91C84.2024 24.91 82.1724 24.77 80.1657 24.49L78.1707 1.95ZM83.9107 21.9C85.1941 22.25 86.4191 22.425 87.5857 22.425C88.7524 22.425 89.5224 22.355 89.8957 22.215C90.7124 20.5817 91.1207 18.9367 91.1207 17.28C91.1207 15.6 90.7357 14.165 89.9657 12.975C88.5657 13.605 86.8041 14.165 84.6807 14.655L83.9107 21.9ZM90.0007 6.71C90.0007 5.96333 89.8374 5.205 89.5107 4.435C89.1841 3.64167 88.7291 3.04667 88.1457 2.65C87.6091 2.65 86.8624 2.79 85.9057 3.07L84.8907 12.66C86.4541 12.03 87.6907 11.1667 88.6007 10.07C89.5341 8.95 90.0007 7.83 90.0007 6.71ZM104.041 24.805C103.644 24.805 103.353 24.7933 103.166 24.77C102.373 24.2333 101.731 23.44 101.241 22.39C100.774 21.3167 100.541 20.2083 100.541 19.065C100.541 17.5717 101.101 16.4867 102.221 15.81C103.364 15.1333 105.453 14.795 108.486 14.795C109.606 14.795 110.773 14.8767 111.986 15.04L111.916 14.27C111.823 13.3367 111.379 12.6017 110.586 12.065C109.793 11.505 108.778 11.225 107.541 11.225C106.304 11.225 105.068 11.61 103.831 12.38L102.291 7.305C104.298 6.48833 106.584 6.08 109.151 6.08C111.718 6.08 113.748 6.66333 115.241 7.83C116.734 8.97333 117.481 10.77 117.481 13.22C117.481 13.78 117.458 14.2233 117.411 14.55L116.431 24.21L112.966 24.525L112.441 19.45H112.161C111.368 21.13 110.271 22.4483 108.871 23.405C107.471 24.3383 105.861 24.805 104.041 24.805ZM112.126 16.51L110.271 16.475C108.731 16.475 107.471 16.5567 106.491 16.72C106.164 17.3733 106.001 17.9567 106.001 18.47C106.001 18.9833 106.071 19.4733 106.211 19.94C106.351 20.4067 106.503 20.7217 106.666 20.885C109.466 20.4417 111.286 18.9833 112.126 16.51ZM122.279 6.185L136.489 6.5L136.944 10.14L125.219 21.725L136.069 20.43L136.279 24L121.194 24.315L121.299 22.18L129.174 9.37L122.384 8.67L122.279 6.185ZM141.864 6.185L156.074 6.5L156.529 10.14L144.804 21.725L155.654 20.43L155.864 24L140.779 24.315L140.884 22.18L148.759 9.37L141.969 8.67L141.864 6.185ZM163.514 24.805C163.117 24.805 162.825 24.7933 162.639 24.77C161.845 24.2333 161.204 23.44 160.714 22.39C160.247 21.3167 160.014 20.2083 160.014 19.065C160.014 17.5717 160.574 16.4867 161.694 15.81C162.837 15.1333 164.925 14.795 167.959 14.795C169.079 14.795 170.245 14.8767 171.459 15.04L171.389 14.27C171.295 13.3367 170.852 12.6017 170.059 12.065C169.265 11.505 168.25 11.225 167.014 11.225C165.777 11.225 164.54 11.61 163.304 12.38L161.764 7.305C163.77 6.48833 166.057 6.08 168.624 6.08C171.19 6.08 173.22 6.66333 174.714 7.83C176.207 8.97333 176.954 10.77 176.954 13.22C176.954 13.78 176.93 14.2233 176.884 14.55L175.904 24.21L172.439 24.525L171.914 19.45H171.634C170.84 21.13 169.744 22.4483 168.344 23.405C166.944 24.3383 165.334 24.805 163.514 24.805ZM171.599 16.51L169.744 16.475C168.204 16.475 166.944 16.5567 165.964 16.72C165.637 17.3733 165.474 17.9567 165.474 18.47C165.474 18.9833 165.544 19.4733 165.684 19.94C165.824 20.4067 165.975 20.7217 166.139 20.885C168.939 20.4417 170.759 18.9833 171.599 16.51ZM192.496 12.485C190.91 12.485 189.708 13.045 188.891 14.165C188.075 15.2617 187.48 17.2917 187.106 20.255L186.616 24.21L183.151 24.525L181.366 7.165L188.856 6.01L188.156 11.61H188.401C190.268 7.59667 192.648 5.46167 195.541 5.205L194.561 12.66C193.698 12.5433 193.01 12.485 192.496 12.485Z" fill="black"/>
</svg>
