<svg width="20" height="21" viewBox="0 0 20 21" fill="none" xmlns="http://www.w3.org/2000/svg">
<g clip-path="url(#clip0_9_241)">
<path fill-rule="evenodd" clip-rule="evenodd" d="M4.16667 2.6875H15.8333C16.7538 2.6875 17.5 3.43369 17.5 4.35417V16.0208C17.5 16.9413 16.7538 17.6875 15.8333 17.6875H4.16667C3.24619 17.6875 2.5 16.9413 2.5 16.0208V4.35417C2.5 3.43369 3.24619 2.6875 4.16667 2.6875ZM6.66667 15.1875C6.89678 15.1875 7.08333 15.0009 7.08333 14.7708V8.9375C7.08333 8.70742 6.89678 8.52083 6.66667 8.52083H5.41667C5.18655 8.52083 5 8.70742 5 8.9375V14.7708C5 15.0009 5.18655 15.1875 5.41667 15.1875H6.66667ZM6.04167 7.6875C5.35131 7.6875 4.79167 7.12786 4.79167 6.4375C4.79167 5.74714 5.35131 5.1875 6.04167 5.1875C6.73202 5.1875 7.29167 5.74714 7.29167 6.4375C7.29167 7.12786 6.73202 7.6875 6.04167 7.6875ZM14.5833 15.1875C14.8134 15.1875 15 15.0009 15 14.7708V10.9375C15.0271 9.61317 14.048 8.48293 12.7333 8.32083C11.8142 8.23688 10.9236 8.66617 10.4167 9.4375V8.9375C10.4167 8.70742 10.2301 8.52083 10 8.52083H8.75C8.51992 8.52083 8.33333 8.70742 8.33333 8.9375V14.7708C8.33333 15.0009 8.51992 15.1875 8.75 15.1875H10C10.2301 15.1875 10.4167 15.0009 10.4167 14.7708V11.6458C10.4167 10.9555 10.9763 10.3958 11.6667 10.3958C12.357 10.3958 12.9167 10.9555 12.9167 11.6458V14.7708C12.9167 15.0009 13.1032 15.1875 13.3333 15.1875H14.5833Z" fill="white" fill-opacity="0.65"/>
</g>
<defs>
<clipPath id="clip0_9_241">
<rect width="20" height="20" fill="white" transform="translate(0 0.1875)"/>
</clipPath>
</defs>
</svg>
