<svg width="180" height="31" viewBox="0 0 180 31" fill="none" xmlns="http://www.w3.org/2000/svg">
<path d="M14.2106 0L19.0411 9.35798L28.4212 11.65L22.0264 19.7255L22.9932 30.5L14.2106 26.133L5.42797 30.5L6.39477 19.7255L0 11.65L9.38015 9.35798L14.2106 0Z" fill="#FFCB45"/>
<path d="M52.1034 0L56.9339 9.35798L66.314 11.65L59.9193 19.7255L60.8861 30.5L52.1034 26.133L43.3208 30.5L44.2876 19.7255L37.8928 11.65L47.273 9.35798L52.1034 0Z" fill="#FFCB45"/>
<path d="M90.0037 0L94.8342 9.35798L104.214 11.65L97.8195 19.7255L98.7863 30.5L90.0037 26.133L81.2211 30.5L82.1879 19.7255L75.7931 11.65L85.1733 9.35798L90.0037 0Z" fill="#FFCB45"/>
<path d="M127.897 0L132.727 9.35798L142.107 11.65L135.712 19.7255L136.679 30.5L127.897 26.133L119.114 30.5L120.081 19.7255L113.686 11.65L123.066 9.35798L127.897 0Z" fill="#F2F2F2"/>
<path d="M119.114 30.5L127.897 26.133V0L123.066 9.35798L113.686 11.65L120.081 19.7255L119.114 30.5Z" fill="#FFCB45"/>
<path d="M165.789 0L170.62 9.35798L180 11.65L173.605 19.7255L174.572 30.5L165.789 26.133L157.007 30.5L157.974 19.7255L151.579 11.65L160.959 9.35798L165.789 0Z" fill="#F2F2F2"/>
</svg>
