<svg width="20" height="21" viewBox="0 0 20 21" fill="none" xmlns="http://www.w3.org/2000/svg">
<g clip-path="url(#clip0_9_237)">
<path d="M17.4773 5.78533C17.0903 6.3016 16.6225 6.75194 16.0919 7.11897C16.0919 7.25383 16.0919 7.38868 16.0919 7.53104C16.0961 9.98008 15.1179 12.3284 13.3765 14.0496C11.635 15.7708 9.27598 16.7208 6.82836 16.6866C5.41331 16.6913 4.01637 16.3683 2.747 15.7426C2.67855 15.7127 2.63441 15.645 2.63466 15.5703V15.4878C2.63466 15.3803 2.72184 15.2931 2.82937 15.2931C4.22033 15.2472 5.56166 14.7649 6.6636 13.9145C5.40459 13.8891 4.27181 13.1433 3.75048 11.9964C3.72416 11.9338 3.73235 11.8619 3.77212 11.8068C3.81189 11.7518 3.87748 11.7214 3.94519 11.7268C4.32783 11.7652 4.7143 11.7296 5.08348 11.6218C3.69364 11.3333 2.64932 10.1795 2.49986 8.76725C2.49456 8.6995 2.52491 8.63392 2.57998 8.59408C2.63504 8.55434 2.70685 8.54608 2.76946 8.5725C3.14243 8.73708 3.54506 8.82375 3.95268 8.82717C2.73485 8.02788 2.20882 6.50754 2.67211 5.12602C2.71993 4.99178 2.83482 4.8926 2.97456 4.86495C3.1143 4.83729 3.25828 4.88524 3.35358 4.99116C4.99697 6.74021 7.25501 7.78247 9.65156 7.89816C9.59023 7.65321 9.56006 7.40147 9.56173 7.14893C9.58415 5.82477 10.4035 4.64518 11.6361 4.16239C12.8687 3.67962 14.2707 3.98919 15.1858 4.9462C15.8095 4.82738 16.4125 4.61788 16.9756 4.32434C17.0168 4.29859 17.0691 4.29859 17.1104 4.32434C17.1361 4.36561 17.1361 4.41793 17.1104 4.4592C16.8376 5.08377 16.3769 5.6076 15.7924 5.95766C16.3042 5.8983 16.8071 5.77756 17.2901 5.59803C17.3308 5.57035 17.3842 5.57035 17.4249 5.59803C17.459 5.61362 17.4845 5.64343 17.4946 5.67952C17.5046 5.71561 17.4983 5.75432 17.4773 5.78533Z" fill="white" fill-opacity="0.65"/>
</g>
<defs>
<clipPath id="clip0_9_237">
<rect width="20" height="20" fill="white" transform="translate(0 0.1875)"/>
</clipPath>
</defs>
</svg>
