<svg width="20" height="21" viewBox="0 0 20 21" fill="none" xmlns="http://www.w3.org/2000/svg">
<g clip-path="url(#clip0_9_233)">
<path d="M17.9942 6.19009C17.8993 5.83792 17.7138 5.51676 17.4562 5.25856C17.1986 5.00036 16.8778 4.81414 16.5259 4.71842C15.2209 4.36009 10 4.35425 10 4.35425C10 4.35425 4.78003 4.34842 3.4742 4.69092C3.12247 4.79104 2.80238 4.9799 2.54467 5.23937C2.28696 5.49883 2.10027 5.82019 2.00253 6.17259C1.65836 7.47759 1.65503 10.1843 1.65503 10.1843C1.65503 10.1843 1.6517 12.9043 1.99336 14.1959C2.18503 14.9101 2.74753 15.4743 3.46253 15.6668C4.78086 16.0251 9.98753 16.0309 9.98753 16.0309C9.98753 16.0309 15.2084 16.0368 16.5134 15.6951C16.8654 15.5995 17.1865 15.4137 17.4447 15.1561C17.703 14.8984 17.8895 14.5778 17.9859 14.2259C18.3309 12.9218 18.3334 10.2159 18.3334 10.2159C18.3334 10.2159 18.35 7.49509 17.9942 6.19009ZM8.33003 12.6918L8.3342 7.69175L12.6734 10.1959L8.33003 12.6918Z" fill="white" fill-opacity="0.65"/>
</g>
<defs>
<clipPath id="clip0_9_233">
<rect width="20" height="20" fill="white" transform="translate(0 0.1875)"/>
</clipPath>
</defs>
</svg>
